<svg xmlns="http://www.w3.org/2000/svg" viewBox="0 0 800 550" width="800" height="550">
<defs>
  <filter id="sh" x="-45%" y="-45%" width="190%" height="190%"><feDropShadow dx="0" dy="10" stdDeviation="14" flood-color="#2b2a26" flood-opacity="0.16"/></filter>
  <filter id="sh2" x="-45%" y="-45%" width="190%" height="190%"><feDropShadow dx="0" dy="5" stdDeviation="8" flood-color="#2b2a26" flood-opacity="0.12"/></filter>
  <filter id="sh3" x="-45%" y="-45%" width="190%" height="190%"><feDropShadow dx="0" dy="3" stdDeviation="4" flood-color="#2b2a26" flood-opacity="0.10"/></filter>
  <linearGradient id="gm" x1="0" y1="0" x2="1" y2="1"><stop offset="0" stop-color="#2f6b52"/><stop offset="1" stop-color="#173f2d"/></linearGradient>
  <linearGradient id="pg" x1="0" y1="0" x2="0" y2="1"><stop offset="0" stop-color="#ffffff"/><stop offset="1" stop-color="#fbf8f2"/></linearGradient>
</defs>
<rect x="0" y="0" width="800" height="550" rx="0" fill="#f3eee3" /><g transform="rotate(5 470 300)"><rect x="392" y="118" width="246" height="330" rx="16" fill="#ffffff" filter="url(#sh3)" stroke="#e8dfcd"/></g><text x="512" y="190" font-family="Songti SC, Noto Serif SC, STSong, SimSun, serif" font-size="22" fill="#6b675e" font-weight="400" text-anchor="middle" opacity="1">学生党</text><text x="512" y="226" font-family="Songti SC, Noto Serif SC, STSong, SimSun, serif" font-size="22" fill="#6b675e" font-weight="400" text-anchor="middle" opacity="1">5 支好写的笔</text><rect x="420" y="250" width="190" height="120" rx="10" fill="#faf7f1" /><text x="515" y="316" font-family="PingFang SC, Microsoft YaHei, Arial, sans-serif" font-size="10" fill="#a49c8e" font-weight="400" text-anchor="middle" opacity="1">实拍图位</text><rect x="424" y="388" width="182" height="5" rx="2.5" fill="#ded6c6" /><rect x="424" y="401" width="182" height="5" rx="2.5" fill="#ded6c6" /><rect x="424" y="414" width="100.10000000000001" height="5" rx="2.5" fill="#ded6c6" /><rect x="150" y="96" width="268" height="356" rx="18" fill="#ffffff" filter="url(#sh)"/><rect x="150" y="96" width="268" height="6" rx="3" fill="#b0642c" /><text x="284" y="168" font-family="Songti SC, Noto Serif SC, STSong, SimSun, serif" font-size="25" fill="#1f4d3a" font-weight="600" text-anchor="middle" opacity="1" letter-spacing="1">学生党文具</text><text x="284" y="206" font-family="Songti SC, Noto Serif SC, STSong, SimSun, serif" font-size="25" fill="#b0642c" font-weight="600" text-anchor="middle" opacity="1" letter-spacing="1">这 5 支笔</text><text x="284" y="234" font-family="Songti SC, Noto Serif SC, STSong, SimSun, serif" font-size="25" fill="#b0642c" font-weight="600" text-anchor="middle" opacity="1" letter-spacing="1">太好写了</text><line x1="224" y1="254" x2="344" y2="254" stroke="#c9a55c" stroke-width="2" /><rect x="178" y="274" width="212" height="104" rx="10" fill="#f3eee3" /><text x="284" y="330" font-family="PingFang SC, Microsoft YaHei, Arial, sans-serif" font-size="10" fill="#a49c8e" font-weight="400" text-anchor="middle" opacity="1">封面主体图</text><text x="284" y="402" font-family="PingFang SC, Microsoft YaHei, Arial, sans-serif" font-size="10.5" fill="#b0642c" font-weight="400" text-anchor="middle" opacity="1">#文具推荐  #学生党  #好物</text><text x="470" y="130" font-family="PingFang SC, Microsoft YaHei, Arial, sans-serif" font-size="12" fill="#b0642c" font-weight="600" text-anchor="start" opacity="1" letter-spacing="1">笔记结构</text><line x1="470" y1="142" x2="700" y2="142" stroke="#e2d9c8" stroke-width="1" /><circle cx="474" cy="164" r="3" fill="#b0642c"/><text x="488" y="168" font-family="PingFang SC, Microsoft YaHei, Arial, sans-serif" font-size="11.5" fill="#6b675e" font-weight="400" text-anchor="start" opacity="1">首图：大字封面 + 一张干净实拍</text><circle cx="474" cy="204" r="3" fill="#b0642c"/><text x="488" y="208" font-family="PingFang SC, Microsoft YaHei, Arial, sans-serif" font-size="11.5" fill="#6b675e" font-weight="400" text-anchor="start" opacity="1">标题：痛点前置，控制在 20 字内</text><circle cx="474" cy="244" r="3" fill="#b0642c"/><text x="488" y="248" font-family="PingFang SC, Microsoft YaHei, Arial, sans-serif" font-size="11.5" fill="#6b675e" font-weight="400" text-anchor="start" opacity="1">正文：分点写，每点一行 emoji 引</text><circle cx="474" cy="284" r="3" fill="#b0642c"/><text x="488" y="288" font-family="PingFang SC, Microsoft YaHei, Arial, sans-serif" font-size="11.5" fill="#6b675e" font-weight="400" text-anchor="start" opacity="1">标签：3 个大词 + 2 个长尾词</text><rect x="56" y="476" width="4" height="22" rx="2" fill="#b0642c" /><text x="72" y="486" font-family="PingFang SC, Microsoft YaHei, Arial, sans-serif" font-size="12.5" fill="#1f4d3a" font-weight="600" text-anchor="start" opacity="1">小红书图文</text><text x="72" y="504" font-family="PingFang SC, Microsoft YaHei, Arial, sans-serif" font-size="11.5" fill="#6b675e" font-weight="400" text-anchor="start" opacity="1">封面 + 标题 + 正文 + 标签一次配齐 · 附同类爆款拆解</text></svg>