<svg xmlns="http://www.w3.org/2000/svg" viewBox="0 0 800 550" width="800" height="550">
<defs>
  <filter id="sh" x="-45%" y="-45%" width="190%" height="190%"><feDropShadow dx="0" dy="10" stdDeviation="14" flood-color="#2b2a26" flood-opacity="0.16"/></filter>
  <filter id="sh2" x="-45%" y="-45%" width="190%" height="190%"><feDropShadow dx="0" dy="5" stdDeviation="8" flood-color="#2b2a26" flood-opacity="0.12"/></filter>
  <filter id="sh3" x="-45%" y="-45%" width="190%" height="190%"><feDropShadow dx="0" dy="3" stdDeviation="4" flood-color="#2b2a26" flood-opacity="0.10"/></filter>
  <linearGradient id="gm" x1="0" y1="0" x2="1" y2="1"><stop offset="0" stop-color="#2f6b52"/><stop offset="1" stop-color="#173f2d"/></linearGradient>
  <linearGradient id="pg" x1="0" y1="0" x2="0" y2="1"><stop offset="0" stop-color="#ffffff"/><stop offset="1" stop-color="#fbf8f2"/></linearGradient>
</defs>
<rect x="0" y="0" width="800" height="550" rx="0" fill="#f3eee3" /><g transform="rotate(-5 300 300)"><rect x="78" y="196" width="352" height="198" rx="10" fill="#ffffff" filter="url(#sh2)" stroke="#e8dfcd"/><text x="100" y="226" font-family="PingFang SC, Microsoft YaHei, Arial, sans-serif" font-size="11.5" fill="#1f4d3a" font-weight="600" text-anchor="start" opacity="1">数据概览</text><line x1="100" y1="248" x2="408" y2="248" stroke="#f2ece0" stroke-width="1" /><line x1="100" y1="280" x2="408" y2="280" stroke="#f2ece0" stroke-width="1" /><line x1="100" y1="312" x2="408" y2="312" stroke="#f2ece0" stroke-width="1" /><line x1="100" y1="344" x2="408" y2="344" stroke="#f2ece0" stroke-width="1" /><polyline points="118,324 174,292 230,306 286,258 340,274" fill="none" stroke="#b0642c" stroke-width="2.5" stroke-linecap="round"/><circle cx="118" cy="324" r="3.5" fill="#fff" stroke="#b0642c" stroke-width="2"/><circle cx="174" cy="292" r="3.5" fill="#fff" stroke="#b0642c" stroke-width="2"/><circle cx="230" cy="306" r="3.5" fill="#fff" stroke="#b0642c" stroke-width="2"/><circle cx="286" cy="258" r="3.5" fill="#fff" stroke="#b0642c" stroke-width="2"/><circle cx="340" cy="274" r="3.5" fill="#fff" stroke="#b0642c" stroke-width="2"/></g><g transform="rotate(2 300 300)"><rect x="150" y="148" width="352" height="198" rx="10" fill="#ffffff" filter="url(#sh2)" stroke="#e8dfcd"/><text x="172" y="180" font-family="PingFang SC, Microsoft YaHei, Arial, sans-serif" font-size="12" fill="#1f4d3a" font-weight="600" text-anchor="start" opacity="1">核心指标</text><rect x="172" y="192" width="66" height="52" rx="6" fill="#faf7f1" stroke="#eee6d6"/><text x="182" y="214" font-family="PingFang SC, Microsoft YaHei, Arial, sans-serif" font-size="14" fill="#1f4d3a" font-weight="600" text-anchor="start" opacity="1">1,284</text><text x="182" y="230" font-family="PingFang SC, Microsoft YaHei, Arial, sans-serif" font-size="9" fill="#a49c8e" font-weight="400" text-anchor="start" opacity="1">营收</text><rect x="248" y="192" width="66" height="52" rx="6" fill="#faf7f1" stroke="#eee6d6"/><text x="258" y="214" font-family="PingFang SC, Microsoft YaHei, Arial, sans-serif" font-size="14" fill="#1f4d3a" font-weight="600" text-anchor="start" opacity="1">+23%</text><text x="258" y="230" font-family="PingFang SC, Microsoft YaHei, Arial, sans-serif" font-size="9" fill="#a49c8e" font-weight="400" text-anchor="start" opacity="1">同比</text><rect x="324" y="192" width="66" height="52" rx="6" fill="#faf7f1" stroke="#eee6d6"/><text x="334" y="214" font-family="PingFang SC, Microsoft YaHei, Arial, sans-serif" font-size="14" fill="#1f4d3a" font-weight="600" text-anchor="start" opacity="1">42</text><text x="334" y="230" font-family="PingFang SC, Microsoft YaHei, Arial, sans-serif" font-size="9" fill="#a49c8e" font-weight="400" text-anchor="start" opacity="1">门店</text><text x="172" y="264" font-family="PingFang SC, Microsoft YaHei, Arial, sans-serif" font-size="10" fill="#6b675e" font-weight="400" text-anchor="start" opacity="1">分月走势</text><rect x="174" y="224" width="26" height="82" rx="3" fill="#2e6b52" /><rect x="214" y="200" width="26" height="106" rx="3" fill="#2e6b52" /><rect x="254" y="214" width="26" height="92" rx="3" fill="#2e6b52" /><rect x="294" y="178" width="26" height="128" rx="3" fill="#2e6b52" /><rect x="334" y="190" width="26" height="116" rx="3" fill="#2e6b52" /><rect x="374" y="164" width="26" height="142" rx="3" fill="#b0642c" /></g><g transform="rotate(-1 400 240)"><rect x="228" y="96" width="372" height="210" rx="10" fill="url(#gm)" filter="url(#sh2)" stroke="#e8dfcd"/><rect x="250" y="122" width="4" height="158" rx="0" fill="#c9a55c" /><text x="270" y="193" font-family="Songti SC, Noto Serif SC, STSong, SimSun, serif" font-size="21" fill="#ffffff" font-weight="600" text-anchor="start" opacity="1" letter-spacing="2">年度经营汇报</text><text x="270" y="219" font-family="PingFang SC, Microsoft YaHei, Arial, sans-serif" font-size="11" fill="#9dc0ae" font-weight="400" text-anchor="start" opacity="1">2026 · 上半年</text></g><rect x="596" y="250" width="34" height="22" rx="11" fill="#1f4d3a" /><text x="613" y="265" font-family="PingFang SC, Microsoft YaHei, Arial, sans-serif" font-size="11" fill="#fff" font-weight="600" text-anchor="middle" opacity="1">01</text><rect x="56" y="476" width="4" height="22" rx="2" fill="#b0642c" /><text x="72" y="486" font-family="PingFang SC, Microsoft YaHei, Arial, sans-serif" font-size="12.5" fill="#1f4d3a" font-weight="600" text-anchor="start" opacity="1">演示定制</text><text x="72" y="504" font-family="PingFang SC, Microsoft YaHei, Arial, sans-serif" font-size="11.5" fill="#6b675e" font-weight="400" text-anchor="start" opacity="1">封面、目录、数据页、图表页成套设计 · 交付可编辑源文件</text></svg>